HIERARCHY
ROOT Hip
{
	OFFSET 0 1.131 0.0052
	CHANNELS 6 Xposition Yposition Zposition Xrotation Yrotation Zrotation
	JOINT Abdomen
	{
		OFFSET 0 -0.047353 -0.05
		CHANNELS 3 Xrotation Zrotation Yrotation
		JOINT Chest
		{
			OFFSET 0 0.132153 0.007439
			CHANNELS 3 Xrotation Zrotation Yrotation
			JOINT Neck
			{
				OFFSET 0 0.3078 0.006161
				CHANNELS 3 Xrotation Zrotation Yrotation
				JOINT Head_comp
				{
					OFFSET 0 0.0884 0.013
					CHANNELS 3 Xrotation Yrotation Zrotation
					End Site
					{
						OFFSET -0 0.156 0.0624
					}
				}
			}
			JOINT Left_Collar
			{
				OFFSET 0.02282 0.250342 0.017193
				CHANNELS 2 Yrotation Zrotation
				JOINT Left_Shoulder
				{
					OFFSET 0.15421 0 0
					CHANNELS 3 Xrotation Yrotation Zrotation
					JOINT Left_Forearm
					{
						OFFSET 0.265212 0 0
						CHANNELS 2 Yrotation Xrotation
						JOINT Left_Hand
						{
							OFFSET 0.27571 0 0
							CHANNELS 2 Zrotation Yrotation
							JOINT L1ProxPhalanx
							{
								OFFSET 0.014142 0.001733 0.014142
								CHANNELS 3 Yrotation Zrotation Xrotation
								JOINT L1MidPhalanx
								{
									OFFSET 0.04 0 0
									CHANNELS 1 Zrotation
									JOINT L1DistPhalanx
									{
										OFFSET 0.035 0 0
										CHANNELS 1 Zrotation
										End Site
										{
											OFFSET 0.029 -0 -0
										}
									}
								}
							}
							JOINT L2ProxPhalanx
							{
								OFFSET 0.0821037 0.001578 0.0219996
								CHANNELS 2 Yrotation Zrotation
								JOINT L2MidPhalanx
								{
									OFFSET 0.04 0 0
									CHANNELS 1 Zrotation
									JOINT L2DistPhalanx
									{
										OFFSET 0.028 0 0
										CHANNELS 1 Zrotation
										End Site
										{
											OFFSET 0.02 -0 -0
										}
									}
								}
							}
							JOINT L3ProxPhalanx
							{
								OFFSET 0.083 0 0
								CHANNELS 2 Yrotation Zrotation
								JOINT L3MidPhalanx
								{
									OFFSET 0.053 0 0
									CHANNELS 1 Zrotation
									JOINT L3DistPhalanx
									{
										OFFSET 0.03 0 0
										CHANNELS 1 Zrotation
										End Site
										{
											OFFSET 0.023 -0 -0
										}
									}
								}
							}
							JOINT L4ProxPhalanx
							{
								OFFSET 0.077274 -0.000761 -0.0207055
								CHANNELS 2 Yrotation Zrotation
								JOINT L4MidPhalanx
								{
									OFFSET 0.05 0 0
									CHANNELS 1 Zrotation
									JOINT L4DistPhalanx
									{
										OFFSET 0.03 0 0
										CHANNELS 1 Zrotation
										End Site
										{
											OFFSET 0.023 -0 -0
										}
									}
								}
							}
							JOINT L5ProxPhalanx
							{
								OFFSET 0.0675499 -0.001644 -0.039
								CHANNELS 2 Yrotation Zrotation
								JOINT L5MidPhalanx
								{
									OFFSET 0.04 0 0
									CHANNELS 1 Zrotation
									JOINT L5DistPhalanx
									{
										OFFSET 0.021 0 0
										CHANNELS 1 Zrotation
										End Site
										{
											OFFSET 0.022 -0 -0
										}
									}
								}
							}
						}
					}
				}
			}
			JOINT Right_Collar
			{
				OFFSET -0.02282 0.250342 0.017193
				CHANNELS 2 Yrotation Zrotation
				JOINT Right_Shoulder
				{
					OFFSET -0.15421 0 0
					CHANNELS 3 Xrotation Yrotation Zrotation
					JOINT Right_Forearm
					{
						OFFSET -0.265212 0 0
						CHANNELS 2 Yrotation Xrotation
						JOINT Right_Hand
						{
							OFFSET -0.27571 3e-006 0
							CHANNELS 2 Zrotation Yrotation
							JOINT R1ProxPhalanx
							{
								OFFSET -0.014142 0.001733 0.014142
								CHANNELS 3 Yrotation Zrotation Xrotation
								JOINT R1MidPhalanx
								{
									OFFSET -0.04 0 0
									CHANNELS 1 Zrotation
									JOINT R1DistPhalanx
									{
										OFFSET -0.035 0 0
										CHANNELS 1 Zrotation
										End Site
										{
											OFFSET -0.029 -0 -0
										}
									}
								}
							}
							JOINT R2ProxPhalanx
							{
								OFFSET -0.0821037 0.001578 0.0219996
								CHANNELS 2 Yrotation Zrotation
								JOINT R2MidPhalanx
								{
									OFFSET -0.04 0 0
									CHANNELS 1 Zrotation
									JOINT R2DistPhalanx
									{
										OFFSET -0.028 0 0
										CHANNELS 1 Zrotation
										End Site
										{
											OFFSET -0.02 -0 -0
										}
									}
								}
							}
							JOINT R3ProxPhalanx
							{
								OFFSET -0.083 0 0
								CHANNELS 2 Yrotation Zrotation
								JOINT R3MidPhalanx
								{
									OFFSET -0.053 0 0
									CHANNELS 1 Zrotation
									JOINT R3DistPhalanx
									{
										OFFSET -0.03 0 0
										CHANNELS 1 Zrotation
										End Site
										{
											OFFSET -0.023 -0 -0
										}
									}
								}
							}
							JOINT R4ProxPhalanx
							{
								OFFSET -0.077274 -0.000761 -0.0207055
								CHANNELS 2 Yrotation Zrotation
								JOINT R4MidPhalanx
								{
									OFFSET -0.05 0 0
									CHANNELS 1 Zrotation
									JOINT R4DistPhalanx
									{
										OFFSET -0.03 0 0
										CHANNELS 1 Zrotation
										End Site
										{
											OFFSET -0.023 -0 -0
										}
									}
								}
							}
							JOINT R5ProxPhalanx
							{
								OFFSET -0.0675499 -0.001644 -0.039
								CHANNELS 2 Yrotation Zrotation
								JOINT R5MidPhalanx
								{
									OFFSET -0.04 0 0
									CHANNELS 1 Zrotation
									JOINT R5DistPhalanx
									{
										OFFSET -0.021 0 0
										CHANNELS 1 Zrotation
										End Site
										{
											OFFSET -0.022 -0 -0
										}
									}
								}
							}
						}
					}
				}
			}
		}
	}
	JOINT Left_Thigh
	{
		OFFSET 0.1118 -0.1612 -0.0442
		CHANNELS 3 Xrotation Zrotation Yrotation
		JOINT Left_Shin
		{
			OFFSET 0 -0.477856 0
			CHANNELS 1 Xrotation
			JOINT Left_Foot
			{
				OFFSET 0 -0.431952 0
				CHANNELS 2 Xrotation Zrotation
				JOINT Left_Toe
				{
					OFFSET 0 -0.0442 0.119
					CHANNELS 1 Xrotation
					End Site
					{
						OFFSET -0 -0 0.07
					}
				}
			}
		}
	}
	JOINT Right_Thigh
	{
		OFFSET -0.1118 -0.1612 -0.0442
		CHANNELS 3 Xrotation Zrotation Yrotation
		JOINT Right_Shin
		{
			OFFSET 0 -0.477856 0
			CHANNELS 1 Xrotation
			JOINT Right_Foot
			{
				OFFSET 0 -0.431952 0
				CHANNELS 2 Xrotation Zrotation
				JOINT Right_Toe
				{
					OFFSET 0 -0.0442 0.119
					CHANNELS 1 Xrotation
					End Site
					{
						OFFSET -0 -0 0.07
					}
				}
			}
		}
	}
}
MOTION
Frames: 13
Frame Time: 0.009975
-0.0998378 -0.0602566 0.057392 2.06571e-013 1.03304e-007 -5.10872e-006 0 0 0 0 0 0 0 0 0 0 0 0 0 0 -0 0 -0 0 0 0 0 -40.5316 -43.5896 103.283 -7.10789 -4.81548 2.69559 -7.40342 -2.98992 -6.72733 5.89092 0.508958 -5.4973 -5.3917 11.1257 1.19015 -12.1062 -9.35422 19.4153 3.33565 -41.2194 -1.46018 0 0 -0 0 -0 0 0 0 0 37.9386 28.008 73.698 26.2405 28.4472 13.118 18.2167 29.0248 19.6359 0 22.4358 32.6146 28.1246 -8.63175 30.7051 32.2053 23.7634 -7.83088 26.7354 35.1526 30.0193 1.14702 -0.753345 -0.0150831 0.0240216 -1.17094 0.753501 0 1.15842 -0.753342 -0.015233 3.41509e-006 -1.15833 0.753501 0 
-0.0998378 -0.0602566 0.057392 2.06571e-013 1.03304e-007 -5.10872e-006 0 0 0 0 0 0 0 0 0 0 0 0 0 0 -0 0 -0 0 0 0 0 -40.5316 -43.5896 103.283 -7.10789 -4.81548 2.69559 -7.40342 -2.98992 -6.72733 5.89092 0.508958 -5.4973 -5.3917 11.1257 1.19015 -12.1062 -9.35422 19.4153 3.33565 -41.2194 -1.46018 0 0 -0 0 -0 0 0 0 0 37.9386 28.008 73.698 26.2405 28.4472 13.118 18.2167 29.0248 19.6359 0 22.4358 32.6146 28.1246 -8.63175 30.7051 32.2053 23.7634 -7.83088 26.7354 35.1526 30.0193 1.14702 -0.753345 -0.0150831 0.0240216 -1.17094 0.753501 0 1.15842 -0.753342 -0.015233 3.41509e-006 -1.15833 0.753501 0 
-0.101417 -0.0601933 0.0550162 6.85083e-013 8.99562e-008 -5.08332e-006 0 -0 0 0 -0 0 0 -0 0 -0.710376 0.291078 -9.06772e-006 6.03012 -33.4869 16.3221 -10.7204 -26.3274 -121.532 -6.92958 7.12946 -17.4808 -40.6385 -43.5109 103.135 -7.24735 -4.8914 2.67736 -7.51636 -3.17497 -6.76869 5.86226 0.346656 -5.66981 -5.45475 11.0789 1.02468 -12.2457 -9.39745 19.3495 3.19963 -41.1833 -1.55288 -6.03012 33.4869 16.3221 10.7204 26.3274 121.532 -6.92958 -7.12946 17.4808 40.6385 43.5109 103.135 7.24735 4.8914 -2.67736 7.51636 3.17497 6.76869 -5.86226 -0.346656 5.66981 5.45475 -11.0789 -1.02468 12.2457 9.39745 -19.3495 -3.19963 41.1833 1.55288 0.997403 -0.653895 -0.0114126 0.0239015 -1.02124 0.653999 0 1.00875 -0.653892 -0.0115424 2.40276e-006 -1.00869 0.653999 0 
-0.10135 -0.0601781 0.0541449 6.88546e-013 9.04083e-008 -5.10886e-006 0 -0 0 0 -0 0 0 -0 0 -0.713412 0.291286 -4.41171e-011 6.05954 -33.6551 16.3134 -10.5118 -25.533 -122.274 -6.95015 7.16501 -17.5685 -40.5316 -43.5896 103.283 -7.10789 -4.81548 2.69559 -7.40342 -2.98992 -6.72733 5.89092 0.508958 -5.4973 -5.3917 11.1257 1.19015 -12.1062 -9.35422 19.4153 3.33565 -41.2194 -1.46018 -6.05954 33.6551 16.3134 10.5118 25.533 122.274 -6.95015 -7.16501 17.5685 40.5316 43.5896 103.283 7.10789 4.81548 -2.69559 7.40342 2.98992 6.72733 -5.89092 -0.508958 5.4973 5.3917 -11.1257 -1.19015 12.1062 9.35422 -19.4153 -3.33565 41.2194 1.46018 0.94246 -0.658103 -0.010826 0.0240216 -0.96642 0.658197 0 0.953866 -0.658101 -0.010957 1.81113e-008 -0.953803 0.658197 0 
-0.10135 -0.0601779 0.0541319 5.92392e-013 8.50218e-008 -5.10895e-006 0 -0 0 0 -0 0 0 -0 0 -0.713387 0.291263 -2.58346e-014 6.05954 -33.6551 16.3125 -10.5102 -25.5294 -122.275 -6.95015 7.16501 -17.5685 -40.5316 -43.5896 103.283 -7.10789 -4.81548 2.69559 -7.40342 -2.98992 -6.72733 5.89092 0.508958 -5.4973 -5.3917 11.1257 1.19015 -12.1062 -9.35422 19.4153 3.33565 -41.2194 -1.46018 -6.05954 33.6551 16.3125 10.5102 25.5294 122.275 -6.95015 -7.16501 17.5685 40.5316 43.5896 103.283 7.10789 4.81548 -2.69559 7.40342 2.98992 6.72733 -5.89092 -0.508958 5.4973 5.3917 -11.1257 -1.19015 12.1062 9.35422 -19.4153 -3.33565 41.2194 1.46018 0.941645 -0.658116 -0.0108168 0.0240216 -0.965604 0.65821 0 0.95305 -0.658114 -0.0109478 1.69047e-006 -0.952989 0.65821 0 
-0.10135 -0.0601779 0.0541318 -3.68038e-013 8.49892e-008 -5.10895e-006 0 -0 0 0 -0 0 0 -0 0 -0.713386 0.291263 -3.88256e-019 6.05954 -33.6551 16.3125 -10.5102 -25.5294 -122.275 -6.95015 7.16501 -17.5685 -40.5316 -43.5896 103.283 -7.10789 -4.81548 2.69559 -7.40342 -2.98992 -6.72733 5.89092 0.508958 -5.4973 -5.3917 11.1257 1.19015 -12.1062 -9.35422 19.4153 3.33565 -41.2194 -1.46018 -6.05954 33.6551 16.3125 10.5102 25.5294 122.275 -6.95015 -7.16501 17.5685 40.5316 43.5896 103.283 7.10789 4.81548 -2.69559 7.40342 2.98992 6.72733 -5.89092 -0.508958 5.4973 5.3917 -11.1257 -1.19015 12.1062 9.35422 -19.4153 -3.33565 41.2194 1.46018 0.941638 -0.658117 -0.0108168 0.0240216 -0.965598 0.658211 0 0.953042 -0.658114 -0.0109477 2.8176e-006 -0.952982 0.658211 0 
-0.10135 -0.0601779 0.0541318 5.85433e-013 8.49889e-008 -5.10895e-006 0 -0 0 0 -0 0 0 -0 0 -0.713386 0.291263 -3.88256e-019 6.05954 -33.6551 16.3125 -10.5102 -25.5294 -122.275 -6.95015 7.16501 -17.5685 -40.5316 -43.5896 103.283 -7.10789 -4.81548 2.69559 -7.40342 -2.98992 -6.72733 5.89092 0.508958 -5.4973 -5.3917 11.1257 1.19015 -12.1062 -9.35422 19.4153 3.33565 -41.2194 -1.46018 -6.05954 33.6551 16.3125 10.5102 25.5294 122.275 -6.95015 -7.16501 17.5685 40.5316 43.5896 103.283 7.10789 4.81548 -2.69559 7.40342 2.98992 6.72733 -5.89092 -0.508958 5.4973 5.3917 -11.1257 -1.19015 12.1062 9.35422 -19.4153 -3.33565 41.2194 1.46018 0.941638 -0.658117 -0.0108168 0.0240216 -0.965598 0.658211 0 0.953042 -0.658114 -0.0109477 2.83165e-006 -0.952982 0.658211 0 
-0.10135 -0.0601779 0.0541318 7.30049e-013 8.49889e-008 -5.10895e-006 0 -0 0 0 -0 0 0 -0 0 -0.713386 0.291263 -0 6.05954 -33.6551 16.3125 -10.5102 -25.5294 -122.275 -6.95015 7.16501 -17.5685 -40.5316 -43.5896 103.283 -7.10789 -4.81548 2.69559 -7.40342 -2.98992 -6.72733 5.89092 0.508958 -5.4973 -5.3917 11.1257 1.19015 -12.1062 -9.35422 19.4153 3.33565 -41.2194 -1.46018 -6.05954 33.6551 16.3125 10.5102 25.5294 122.275 -6.95015 -7.16501 17.5685 40.5316 43.5896 103.283 7.10789 4.81548 -2.69559 7.40342 2.98992 6.72733 -5.89092 -0.508958 5.4973 5.3917 -11.1257 -1.19015 12.1062 9.35422 -19.4153 -3.33565 41.2194 1.46018 0.941638 -0.658117 -0.0108168 0.0240216 -0.965598 0.658211 0 0.953042 -0.658114 -0.0109477 2.83165e-006 -0.952982 0.658211 0 
-0.10135 -0.0601779 0.0541318 4.65665e-013 8.49889e-008 -5.10895e-006 0 -0 0 0 -0 0 0 -0 0 -0.713386 0.291263 -0 6.05954 -33.6551 16.3125 -10.5102 -25.5294 -122.275 -6.95015 7.16501 -17.5685 -40.5316 -43.5896 103.283 -7.10789 -4.81548 2.69559 -7.40342 -2.98992 -6.72733 5.89092 0.508958 -5.4973 -5.3917 11.1257 1.19015 -12.1062 -9.35422 19.4153 3.33565 -41.2194 -1.46018 -6.05954 33.6551 16.3125 10.5102 25.5294 122.275 -6.95015 -7.16501 17.5685 40.5316 43.5896 103.283 7.10789 4.81548 -2.69559 7.40342 2.98992 6.72733 -5.89092 -0.508958 5.4973 5.3917 -11.1257 -1.19015 12.1062 9.35422 -19.4153 -3.33565 41.2194 1.46018 0.941638 -0.658117 -0.0108168 0.0240216 -0.965597 0.658211 0 0.953042 -0.658114 -0.0109477 5.66329e-008 -0.952982 0.658211 0 
-0.10135 -0.0601779 0.0541318 3.67168e-013 8.49889e-008 -5.10895e-006 0 -0 0 0 -0 0 0 -0 0 -0.713386 0.291263 3.88256e-019 6.05954 -33.6551 16.3125 -10.5102 -25.5294 -122.275 -6.95015 7.16501 -17.5685 -40.5316 -43.5896 103.283 -7.10789 -4.81548 2.69559 -7.40342 -2.98992 -6.72733 5.89092 0.508958 -5.4973 -5.3917 11.1257 1.19015 -12.1062 -9.35422 19.4153 3.33565 -41.2194 -1.46018 -6.05954 33.6551 16.3125 10.5102 25.5294 122.275 -6.95015 -7.16501 17.5685 40.5316 43.5896 103.283 7.10789 4.81548 -2.69559 7.40342 2.98992 6.72733 -5.89092 -0.508958 5.4973 5.3917 -11.1257 -1.19015 12.1062 9.35422 -19.4153 -3.33565 41.2194 1.46018 0.941638 -0.658117 -0.0108168 0.0240216 -0.965598 0.658211 0 0.953044 -0.658114 -0.0109478 2.3605e-006 -0.952983 0.658211 0 
-0.10135 -0.0601779 0.0541318 -4.42085e-013 8.49889e-008 -5.10895e-006 0 -0 0 0 -0 0 0 -0 0 -0.713386 0.291263 -0 6.05954 -33.6551 16.3125 -10.5102 -25.5294 -122.275 -6.95015 7.16501 -17.5685 -40.5316 -43.5896 103.283 -7.10789 -4.81548 2.69559 -7.40342 -2.98992 -6.72733 5.89092 0.508958 -5.4973 -5.3917 11.1257 1.19015 -12.1062 -9.35422 19.4153 3.33565 -41.2194 -1.46018 -6.05954 33.6551 16.3125 10.5102 25.5294 122.275 -6.95015 -7.16501 17.5685 40.5316 43.5896 103.283 7.10789 4.81548 -2.69559 7.40342 2.98992 6.72733 -5.89092 -0.508958 5.4973 5.3917 -11.1257 -1.19015 12.1062 9.35422 -19.4153 -3.33565 41.2194 1.46018 0.941638 -0.658117 -0.0108168 0.0240216 -0.965598 0.658211 0 0.953044 -0.658114 -0.0109478 2.41484e-006 -0.952983 0.658211 0 
-0.10135 -0.0601779 0.0541318 -5.52709e-013 8.49889e-008 -5.10895e-006 0 -0 0 0 -0 0 0 -0 0 -0.713386 0.291263 -0 6.05954 -33.6551 16.3125 -10.5102 -25.5294 -122.275 -6.95015 7.16501 -17.5685 -40.5316 -43.5896 103.283 -7.10789 -4.81548 2.69559 -7.40342 -2.98992 -6.72733 5.89092 0.508958 -5.4973 -5.3917 11.1257 1.19015 -12.1062 -9.35422 19.4153 3.33565 -41.2194 -1.46018 -6.05954 33.6551 16.3125 10.5102 25.5294 122.275 -6.95015 -7.16501 17.5685 40.5316 43.5896 103.283 7.10789 4.81548 -2.69559 7.40342 2.98992 6.72733 -5.89092 -0.508958 5.4973 5.3917 -11.1257 -1.19015 12.1062 9.35422 -19.4153 -3.33565 41.2194 1.46018 0.941638 -0.658117 -0.0108168 0.0240216 -0.965598 0.658211 0 0.953044 -0.658114 -0.0109478 2.41484e-006 -0.952983 0.658211 0 
-0.10135 -0.0601779 0.0541318 -7.28335e-013 8.49889e-008 -5.10895e-006 0 -0 0 0 -0 0 0 -0 0 -0.713386 0.291263 -0 6.05954 -33.6551 16.3125 -10.5102 -25.5294 -122.275 -6.95015 7.16501 -17.5685 -40.5316 -43.5896 103.283 -7.10789 -4.81548 2.69559 -7.40342 -2.98992 -6.72733 5.89092 0.508958 -5.4973 -5.3917 11.1257 1.19015 -12.1062 -9.35422 19.4153 3.33565 -41.2194 -1.46018 -6.05954 33.6551 16.3125 10.5102 25.5294 122.275 -6.95015 -7.16501 17.5685 40.5316 43.5896 103.283 7.10789 4.81548 -2.69559 7.40342 2.98992 6.72733 -5.89092 -0.508958 5.4973 5.3917 -11.1257 -1.19015 12.1062 9.35422 -19.4153 -3.33565 41.2194 1.46018 0.941638 -0.658117 -0.0108168 0.0240216 -0.965598 0.658211 0 0.953044 -0.658114 -0.0109478 5.12264e-008 -0.952981 0.658211 0 
